<mxfile host="app.diagrams.net" modified="2021-04-19T13:09:26.807Z" agent="5.0 (Windows NT 10.0; Win64; x64) AppleWebKit/537.36 (KHTML, like Gecko) Chrome/88.0.4324.182 Safari/537.36" etag="eNheR8kOVffDZigReo4g" version="14.5.4" type="github">
  <diagram id="HL5FU7b5v3GHtU7pl1D0" name="Page-1">
    <mxGraphModel dx="944" dy="1648" grid="0" gridSize="10" guides="1" tooltips="1" connect="1" arrows="0" fold="1" page="1" pageScale="1" pageWidth="827" pageHeight="1169" math="0" shadow="0">
      <root>
        <mxCell id="0" />
        <mxCell id="1" parent="0" />
        <mxCell id="2PGr2bW_7u09328AlTzU-21" value="" style="rounded=0;whiteSpace=wrap;html=1;" parent="1" vertex="1">
          <mxGeometry x="140" y="-97" width="261" height="281" as="geometry" />
        </mxCell>
        <mxCell id="xoODFnLUPFO7UlEcx-ut-1" value="" style="ellipse;whiteSpace=wrap;html=1;fillColor=#0050ef;strokeColor=#001DBC;fontColor=#ffffff;" parent="1" vertex="1">
          <mxGeometry x="197" y="-816" width="120" height="80" as="geometry" />
        </mxCell>
        <mxCell id="9Wrrad7oVjnx4bKwL_T1-1" value="" style="strokeWidth=2;html=1;shape=mxgraph.flowchart.annotation_2;align=left;labelPosition=right;pointerEvents=1;" parent="1" vertex="1">
          <mxGeometry x="341" y="-834" width="60" height="160" as="geometry" />
        </mxCell>
        <mxCell id="L5w4uZSqszy5Lv5xO5T8-1" value="" style="ellipse;whiteSpace=wrap;html=1;" parent="1" vertex="1">
          <mxGeometry x="424" y="-814" width="120" height="80" as="geometry" />
        </mxCell>
        <mxCell id="meW8NayXHioV1tvIMYQ5-1" value="" style="ellipse;whiteSpace=wrap;html=1;" parent="1" vertex="1">
          <mxGeometry x="147" y="-444" width="120" height="80" as="geometry" />
        </mxCell>
        <mxCell id="meW8NayXHioV1tvIMYQ5-2" value="" style="shape=document;whiteSpace=wrap;html=1;boundedLbl=1;" parent="1" vertex="1">
          <mxGeometry x="414" y="-452" width="120" height="80" as="geometry" />
        </mxCell>
        <mxCell id="2PGr2bW_7u09328AlTzU-2" value="" style="rounded=0;whiteSpace=wrap;html=1;" parent="1" vertex="1">
          <mxGeometry x="338" y="229" width="261" height="281" as="geometry" />
        </mxCell>
        <mxCell id="2PGr2bW_7u09328AlTzU-33" style="edgeStyle=orthogonalEdgeStyle;rounded=0;orthogonalLoop=1;jettySize=auto;html=1;" parent="1" source="2PGr2bW_7u09328AlTzU-5" target="2PGr2bW_7u09328AlTzU-6" edge="1">
          <mxGeometry relative="1" as="geometry" />
        </mxCell>
        <mxCell id="2PGr2bW_7u09328AlTzU-35" style="edgeStyle=orthogonalEdgeStyle;rounded=0;orthogonalLoop=1;jettySize=auto;html=1;" parent="1" source="2PGr2bW_7u09328AlTzU-5" target="2PGr2bW_7u09328AlTzU-10" edge="1">
          <mxGeometry relative="1" as="geometry" />
        </mxCell>
        <mxCell id="2PGr2bW_7u09328AlTzU-41" style="edgeStyle=orthogonalEdgeStyle;rounded=0;orthogonalLoop=1;jettySize=auto;html=1;exitX=0.5;exitY=1;exitDx=0;exitDy=0;" parent="1" source="2PGr2bW_7u09328AlTzU-5" target="2PGr2bW_7u09328AlTzU-22" edge="1">
          <mxGeometry relative="1" as="geometry" />
        </mxCell>
        <mxCell id="2PGr2bW_7u09328AlTzU-5" value="&lt;font style=&quot;font-size: 23px&quot;&gt;TAP&lt;/font&gt;" style="rounded=0;whiteSpace=wrap;html=1;" parent="1" vertex="1">
          <mxGeometry x="398" y="-192" width="120" height="60" as="geometry" />
        </mxCell>
        <mxCell id="2PGr2bW_7u09328AlTzU-39" style="edgeStyle=orthogonalEdgeStyle;rounded=0;orthogonalLoop=1;jettySize=auto;html=1;entryX=0.5;entryY=0;entryDx=0;entryDy=0;" parent="1" source="2PGr2bW_7u09328AlTzU-6" target="2PGr2bW_7u09328AlTzU-7" edge="1">
          <mxGeometry relative="1" as="geometry" />
        </mxCell>
        <mxCell id="2PGr2bW_7u09328AlTzU-40" style="edgeStyle=orthogonalEdgeStyle;rounded=0;orthogonalLoop=1;jettySize=auto;html=1;entryX=0.5;entryY=0;entryDx=0;entryDy=0;" parent="1" source="2PGr2bW_7u09328AlTzU-6" target="2PGr2bW_7u09328AlTzU-8" edge="1">
          <mxGeometry relative="1" as="geometry" />
        </mxCell>
        <mxCell id="2PGr2bW_7u09328AlTzU-6" value="&lt;font style=&quot;font-size: 23px&quot;&gt;WTAP&lt;/font&gt;" style="rounded=0;whiteSpace=wrap;html=1;" parent="1" vertex="1">
          <mxGeometry x="217" y="-79" width="107" height="41" as="geometry" />
        </mxCell>
        <mxCell id="2PGr2bW_7u09328AlTzU-7" value="&lt;span style=&quot;font-size: 23px&quot;&gt;测试组&lt;/span&gt;" style="rounded=0;whiteSpace=wrap;html=1;" parent="1" vertex="1">
          <mxGeometry x="174" y="8" width="66" height="76" as="geometry" />
        </mxCell>
        <mxCell id="2PGr2bW_7u09328AlTzU-8" value="&lt;span style=&quot;font-size: 23px&quot;&gt;测试组&lt;/span&gt;" style="rounded=0;whiteSpace=wrap;html=1;" parent="1" vertex="1">
          <mxGeometry x="276" y="-3" width="104" height="114" as="geometry" />
        </mxCell>
        <mxCell id="2PGr2bW_7u09328AlTzU-9" value="" style="rounded=0;whiteSpace=wrap;html=1;" parent="1" vertex="1">
          <mxGeometry x="530" y="-103" width="261" height="281" as="geometry" />
        </mxCell>
        <mxCell id="2PGr2bW_7u09328AlTzU-36" style="edgeStyle=orthogonalEdgeStyle;rounded=0;orthogonalLoop=1;jettySize=auto;html=1;entryX=0.5;entryY=0;entryDx=0;entryDy=0;" parent="1" source="2PGr2bW_7u09328AlTzU-10" target="2PGr2bW_7u09328AlTzU-11" edge="1">
          <mxGeometry relative="1" as="geometry" />
        </mxCell>
        <mxCell id="2PGr2bW_7u09328AlTzU-37" style="edgeStyle=orthogonalEdgeStyle;rounded=0;orthogonalLoop=1;jettySize=auto;html=1;entryX=0.5;entryY=0;entryDx=0;entryDy=0;" parent="1" source="2PGr2bW_7u09328AlTzU-10" target="2PGr2bW_7u09328AlTzU-12" edge="1">
          <mxGeometry relative="1" as="geometry" />
        </mxCell>
        <mxCell id="2PGr2bW_7u09328AlTzU-38" style="edgeStyle=orthogonalEdgeStyle;rounded=0;orthogonalLoop=1;jettySize=auto;html=1;exitX=0.5;exitY=1;exitDx=0;exitDy=0;" parent="1" source="2PGr2bW_7u09328AlTzU-10" target="2PGr2bW_7u09328AlTzU-29" edge="1">
          <mxGeometry relative="1" as="geometry" />
        </mxCell>
        <mxCell id="2PGr2bW_7u09328AlTzU-10" value="&lt;font style=&quot;font-size: 23px&quot;&gt;WTAP&lt;/font&gt;" style="rounded=0;whiteSpace=wrap;html=1;" parent="1" vertex="1">
          <mxGeometry x="604" y="-82" width="107" height="41" as="geometry" />
        </mxCell>
        <mxCell id="2PGr2bW_7u09328AlTzU-11" value="&lt;span style=&quot;font-size: 23px&quot;&gt;测试组&lt;/span&gt;" style="rounded=0;whiteSpace=wrap;html=1;" parent="1" vertex="1">
          <mxGeometry x="561" y="-5" width="75" height="64" as="geometry" />
        </mxCell>
        <mxCell id="2PGr2bW_7u09328AlTzU-12" value="&lt;span style=&quot;font-size: 23px&quot;&gt;测试组&lt;/span&gt;" style="rounded=0;whiteSpace=wrap;html=1;" parent="1" vertex="1">
          <mxGeometry x="677" y="-4" width="104" height="62" as="geometry" />
        </mxCell>
        <mxCell id="2PGr2bW_7u09328AlTzU-42" style="edgeStyle=orthogonalEdgeStyle;rounded=0;orthogonalLoop=1;jettySize=auto;html=1;" parent="1" source="2PGr2bW_7u09328AlTzU-22" target="2PGr2bW_7u09328AlTzU-23" edge="1">
          <mxGeometry relative="1" as="geometry" />
        </mxCell>
        <mxCell id="2PGr2bW_7u09328AlTzU-43" style="edgeStyle=orthogonalEdgeStyle;rounded=0;orthogonalLoop=1;jettySize=auto;html=1;entryX=0.5;entryY=0;entryDx=0;entryDy=0;" parent="1" source="2PGr2bW_7u09328AlTzU-22" target="2PGr2bW_7u09328AlTzU-24" edge="1">
          <mxGeometry relative="1" as="geometry">
            <Array as="points">
              <mxPoint x="458" y="298" />
              <mxPoint x="534" y="298" />
            </Array>
          </mxGeometry>
        </mxCell>
        <mxCell id="2PGr2bW_7u09328AlTzU-22" value="&lt;font style=&quot;font-size: 23px&quot;&gt;WTAP&lt;/font&gt;" style="rounded=0;whiteSpace=wrap;html=1;" parent="1" vertex="1">
          <mxGeometry x="404.5" y="243" width="107" height="41" as="geometry" />
        </mxCell>
        <mxCell id="2PGr2bW_7u09328AlTzU-23" value="&lt;span style=&quot;font-size: 23px&quot;&gt;测试组&lt;/span&gt;" style="rounded=0;whiteSpace=wrap;html=1;" parent="1" vertex="1">
          <mxGeometry x="361" y="314" width="66" height="76" as="geometry" />
        </mxCell>
        <mxCell id="2PGr2bW_7u09328AlTzU-24" value="&lt;span style=&quot;font-size: 23px&quot;&gt;测试组&lt;/span&gt;" style="rounded=0;whiteSpace=wrap;html=1;" parent="1" vertex="1">
          <mxGeometry x="493" y="310" width="82" height="91" as="geometry" />
        </mxCell>
        <mxCell id="2PGr2bW_7u09328AlTzU-29" value="&lt;span style=&quot;font-size: 23px&quot;&gt;测试组&lt;/span&gt;" style="rounded=0;whiteSpace=wrap;html=1;" parent="1" vertex="1">
          <mxGeometry x="597.5" y="84" width="120" height="64" as="geometry" />
        </mxCell>
        <mxCell id="2PGr2bW_7u09328AlTzU-68" value="" style="rounded=0;whiteSpace=wrap;html=1;" parent="1" vertex="1">
          <mxGeometry x="109" y="1285" width="261" height="281" as="geometry" />
        </mxCell>
        <mxCell id="2PGr2bW_7u09328AlTzU-69" value="" style="rounded=0;whiteSpace=wrap;html=1;" parent="1" vertex="1">
          <mxGeometry x="307" y="1611" width="261" height="281" as="geometry" />
        </mxCell>
        <mxCell id="2PGr2bW_7u09328AlTzU-70" style="edgeStyle=orthogonalEdgeStyle;rounded=0;orthogonalLoop=1;jettySize=auto;html=1;shape=link;" parent="1" source="2PGr2bW_7u09328AlTzU-73" target="2PGr2bW_7u09328AlTzU-76" edge="1">
          <mxGeometry relative="1" as="geometry" />
        </mxCell>
        <mxCell id="2PGr2bW_7u09328AlTzU-72" style="edgeStyle=orthogonalEdgeStyle;rounded=0;orthogonalLoop=1;jettySize=auto;html=1;exitX=0.5;exitY=1;exitDx=0;exitDy=0;shape=link;" parent="1" source="2PGr2bW_7u09328AlTzU-73" target="2PGr2bW_7u09328AlTzU-88" edge="1">
          <mxGeometry relative="1" as="geometry" />
        </mxCell>
        <mxCell id="2PGr2bW_7u09328AlTzU-73" value="&lt;font style=&quot;font-size: 23px&quot;&gt;TAP&lt;/font&gt;" style="rounded=0;whiteSpace=wrap;html=1;" parent="1" vertex="1">
          <mxGeometry x="367" y="1190" width="120" height="60" as="geometry" />
        </mxCell>
        <mxCell id="2PGr2bW_7u09328AlTzU-74" style="edgeStyle=orthogonalEdgeStyle;rounded=0;orthogonalLoop=1;jettySize=auto;html=1;entryX=0.5;entryY=0;entryDx=0;entryDy=0;shape=link;" parent="1" source="2PGr2bW_7u09328AlTzU-76" target="2PGr2bW_7u09328AlTzU-77" edge="1">
          <mxGeometry relative="1" as="geometry" />
        </mxCell>
        <mxCell id="2PGr2bW_7u09328AlTzU-75" style="edgeStyle=orthogonalEdgeStyle;rounded=0;orthogonalLoop=1;jettySize=auto;html=1;entryX=0.5;entryY=0;entryDx=0;entryDy=0;shape=link;" parent="1" source="2PGr2bW_7u09328AlTzU-76" target="2PGr2bW_7u09328AlTzU-78" edge="1">
          <mxGeometry relative="1" as="geometry" />
        </mxCell>
        <mxCell id="2PGr2bW_7u09328AlTzU-76" value="&lt;font style=&quot;font-size: 23px&quot;&gt;WTAP&lt;/font&gt;" style="rounded=0;whiteSpace=wrap;html=1;" parent="1" vertex="1">
          <mxGeometry x="186" y="1303" width="107" height="41" as="geometry" />
        </mxCell>
        <mxCell id="2PGr2bW_7u09328AlTzU-77" value="&lt;span style=&quot;font-size: 23px&quot;&gt;测试组&lt;/span&gt;" style="rounded=0;whiteSpace=wrap;html=1;" parent="1" vertex="1">
          <mxGeometry x="143" y="1390" width="66" height="76" as="geometry" />
        </mxCell>
        <mxCell id="2PGr2bW_7u09328AlTzU-78" value="&lt;span style=&quot;font-size: 23px&quot;&gt;测试组&lt;/span&gt;" style="rounded=0;whiteSpace=wrap;html=1;" parent="1" vertex="1">
          <mxGeometry x="245" y="1379" width="104" height="114" as="geometry" />
        </mxCell>
        <mxCell id="2PGr2bW_7u09328AlTzU-79" value="" style="rounded=0;whiteSpace=wrap;html=1;" parent="1" vertex="1">
          <mxGeometry x="499" y="1279" width="261" height="281" as="geometry" />
        </mxCell>
        <mxCell id="2PGr2bW_7u09328AlTzU-80" style="edgeStyle=orthogonalEdgeStyle;rounded=0;orthogonalLoop=1;jettySize=auto;html=1;entryX=0.5;entryY=0;entryDx=0;entryDy=0;shape=link;" parent="1" source="2PGr2bW_7u09328AlTzU-83" target="2PGr2bW_7u09328AlTzU-84" edge="1">
          <mxGeometry relative="1" as="geometry" />
        </mxCell>
        <mxCell id="2PGr2bW_7u09328AlTzU-81" style="edgeStyle=orthogonalEdgeStyle;rounded=0;orthogonalLoop=1;jettySize=auto;html=1;entryX=0.5;entryY=0;entryDx=0;entryDy=0;shape=link;" parent="1" source="2PGr2bW_7u09328AlTzU-83" target="2PGr2bW_7u09328AlTzU-85" edge="1">
          <mxGeometry relative="1" as="geometry" />
        </mxCell>
        <mxCell id="2PGr2bW_7u09328AlTzU-82" style="edgeStyle=orthogonalEdgeStyle;rounded=0;orthogonalLoop=1;jettySize=auto;html=1;exitX=0.5;exitY=1;exitDx=0;exitDy=0;shape=link;" parent="1" source="2PGr2bW_7u09328AlTzU-83" target="2PGr2bW_7u09328AlTzU-91" edge="1">
          <mxGeometry relative="1" as="geometry" />
        </mxCell>
        <mxCell id="2PGr2bW_7u09328AlTzU-83" value="&lt;font style=&quot;font-size: 23px&quot;&gt;WTAP&lt;/font&gt;" style="rounded=0;whiteSpace=wrap;html=1;" parent="1" vertex="1">
          <mxGeometry x="573" y="1300" width="107" height="41" as="geometry" />
        </mxCell>
        <mxCell id="2PGr2bW_7u09328AlTzU-84" value="&lt;span style=&quot;font-size: 23px&quot;&gt;测试组&lt;/span&gt;" style="rounded=0;whiteSpace=wrap;html=1;" parent="1" vertex="1">
          <mxGeometry x="530" y="1377" width="75" height="64" as="geometry" />
        </mxCell>
        <mxCell id="2PGr2bW_7u09328AlTzU-85" value="&lt;span style=&quot;font-size: 23px&quot;&gt;测试组&lt;/span&gt;" style="rounded=0;whiteSpace=wrap;html=1;" parent="1" vertex="1">
          <mxGeometry x="646" y="1378" width="104" height="62" as="geometry" />
        </mxCell>
        <mxCell id="2PGr2bW_7u09328AlTzU-86" style="edgeStyle=orthogonalEdgeStyle;rounded=0;orthogonalLoop=1;jettySize=auto;html=1;shape=link;" parent="1" source="2PGr2bW_7u09328AlTzU-88" target="2PGr2bW_7u09328AlTzU-89" edge="1">
          <mxGeometry relative="1" as="geometry" />
        </mxCell>
        <mxCell id="2PGr2bW_7u09328AlTzU-87" style="edgeStyle=orthogonalEdgeStyle;rounded=0;orthogonalLoop=1;jettySize=auto;html=1;entryX=0.5;entryY=0;entryDx=0;entryDy=0;shape=link;" parent="1" source="2PGr2bW_7u09328AlTzU-88" target="2PGr2bW_7u09328AlTzU-90" edge="1">
          <mxGeometry relative="1" as="geometry" />
        </mxCell>
        <mxCell id="2PGr2bW_7u09328AlTzU-88" value="&lt;font style=&quot;font-size: 23px&quot;&gt;WTAP&lt;/font&gt;" style="rounded=0;whiteSpace=wrap;html=1;" parent="1" vertex="1">
          <mxGeometry x="373.5" y="1625" width="107" height="41" as="geometry" />
        </mxCell>
        <mxCell id="2PGr2bW_7u09328AlTzU-89" value="&lt;span style=&quot;font-size: 23px&quot;&gt;测试组&lt;/span&gt;" style="rounded=0;whiteSpace=wrap;html=1;" parent="1" vertex="1">
          <mxGeometry x="330" y="1728" width="66" height="76" as="geometry" />
        </mxCell>
        <mxCell id="2PGr2bW_7u09328AlTzU-90" value="&lt;span style=&quot;font-size: 23px&quot;&gt;测试组&lt;/span&gt;" style="rounded=0;whiteSpace=wrap;html=1;" parent="1" vertex="1">
          <mxGeometry x="454" y="1754" width="82" height="91" as="geometry" />
        </mxCell>
        <mxCell id="2PGr2bW_7u09328AlTzU-91" value="&lt;span style=&quot;font-size: 23px&quot;&gt;测试组&lt;/span&gt;" style="rounded=0;whiteSpace=wrap;html=1;" parent="1" vertex="1">
          <mxGeometry x="566.5" y="1466" width="120" height="64" as="geometry" />
        </mxCell>
        <mxCell id="2PGr2bW_7u09328AlTzU-92" style="edgeStyle=orthogonalEdgeStyle;shape=link;rounded=1;orthogonalLoop=1;jettySize=auto;html=1;exitX=1;exitY=0.5;exitDx=0;exitDy=0;entryX=0.5;entryY=0;entryDx=0;entryDy=0;strokeColor=#000000;" parent="1" source="2PGr2bW_7u09328AlTzU-73" target="2PGr2bW_7u09328AlTzU-83" edge="1">
          <mxGeometry relative="1" as="geometry" />
        </mxCell>
        <mxCell id="2PGr2bW_7u09328AlTzU-93" value="&lt;font style=&quot;font-size: 23px&quot;&gt;WTAP&lt;/font&gt;" style="rounded=0;whiteSpace=wrap;html=1;" parent="1" vertex="1">
          <mxGeometry x="841" y="1270" width="107" height="41" as="geometry" />
        </mxCell>
        <mxCell id="OvFYzg-nlbuzujg0oCb5-4" value="(" style="rounded=0;whiteSpace=wrap;html=1;" parent="1" vertex="1">
          <mxGeometry x="151" y="727" width="49" height="37" as="geometry" />
        </mxCell>
        <mxCell id="OvFYzg-nlbuzujg0oCb5-5" value="(" style="rounded=0;whiteSpace=wrap;html=1;" parent="1" vertex="1">
          <mxGeometry x="200" y="727" width="49" height="37" as="geometry" />
        </mxCell>
        <mxCell id="OvFYzg-nlbuzujg0oCb5-6" value=")" style="rounded=0;whiteSpace=wrap;html=1;" parent="1" vertex="1">
          <mxGeometry x="298" y="727" width="49" height="37" as="geometry" />
        </mxCell>
        <mxCell id="OvFYzg-nlbuzujg0oCb5-7" value="(" style="rounded=0;whiteSpace=wrap;html=1;" parent="1" vertex="1">
          <mxGeometry x="249" y="727" width="49" height="37" as="geometry" />
        </mxCell>
        <mxCell id="OvFYzg-nlbuzujg0oCb5-9" value="(" style="rounded=0;whiteSpace=wrap;html=1;" parent="1" vertex="1">
          <mxGeometry x="347" y="727" width="49" height="37" as="geometry" />
        </mxCell>
        <mxCell id="OvFYzg-nlbuzujg0oCb5-11" value="0" style="text;html=1;align=center;verticalAlign=middle;resizable=0;points=[];autosize=1;" parent="1" vertex="1">
          <mxGeometry x="167.5" y="700" width="16" height="18" as="geometry" />
        </mxCell>
        <mxCell id="OvFYzg-nlbuzujg0oCb5-12" value="1" style="text;html=1;align=center;verticalAlign=middle;resizable=0;points=[];autosize=1;" parent="1" vertex="1">
          <mxGeometry x="211" y="700" width="16" height="18" as="geometry" />
        </mxCell>
        <mxCell id="OvFYzg-nlbuzujg0oCb5-13" value="2" style="text;html=1;align=center;verticalAlign=middle;resizable=0;points=[];autosize=1;" parent="1" vertex="1">
          <mxGeometry x="262.5" y="700" width="16" height="18" as="geometry" />
        </mxCell>
        <mxCell id="OvFYzg-nlbuzujg0oCb5-14" value="3" style="text;html=1;align=center;verticalAlign=middle;resizable=0;points=[];autosize=1;" parent="1" vertex="1">
          <mxGeometry x="317" y="700" width="16" height="18" as="geometry" />
        </mxCell>
        <mxCell id="OvFYzg-nlbuzujg0oCb5-15" value="4" style="text;html=1;align=center;verticalAlign=middle;resizable=0;points=[];autosize=1;" parent="1" vertex="1">
          <mxGeometry x="361" y="700" width="16" height="18" as="geometry" />
        </mxCell>
        <mxCell id="OvFYzg-nlbuzujg0oCb5-16" value="&lt;br&gt;&lt;br&gt;&lt;br&gt;" style="text;html=1;align=center;verticalAlign=middle;resizable=0;points=[];autosize=1;" parent="1" vertex="1">
          <mxGeometry x="202" y="781" width="10" height="45" as="geometry" />
        </mxCell>
        <mxCell id="OvFYzg-nlbuzujg0oCb5-17" value="i = 4， i - 1 = 3.&lt;br&gt;&lt;br&gt;dp[i-1] = 2&lt;br&gt;&lt;br&gt;i - dp[i-1] = 2,&lt;br&gt;&lt;br&gt;i - dp[i-1] - 1 = 1, 判断的正是这里的符号&lt;br&gt;&lt;br&gt;i - dp[i-1] - 2 = 2" style="text;html=1;strokeColor=none;fillColor=none;align=center;verticalAlign=middle;whiteSpace=wrap;rounded=0;" parent="1" vertex="1">
          <mxGeometry x="156" y="778" width="242" height="163" as="geometry" />
        </mxCell>
        <mxCell id="QxWfKdQQFuDrmjM4ranz-2" value="" style="endArrow=classic;html=1;" parent="1" edge="1">
          <mxGeometry width="50" height="50" relative="1" as="geometry">
            <mxPoint x="1711" y="1411" as="sourcePoint" />
            <mxPoint x="2022" y="1411" as="targetPoint" />
          </mxGeometry>
        </mxCell>
        <mxCell id="QxWfKdQQFuDrmjM4ranz-3" value="" style="endArrow=classic;html=1;" parent="1" edge="1">
          <mxGeometry width="50" height="50" relative="1" as="geometry">
            <mxPoint x="1711" y="1410" as="sourcePoint" />
            <mxPoint x="1711" y="1203" as="targetPoint" />
          </mxGeometry>
        </mxCell>
        <mxCell id="QxWfKdQQFuDrmjM4ranz-4" value="" style="rounded=0;whiteSpace=wrap;html=1;" parent="1" vertex="1">
          <mxGeometry x="1749" y="1298" width="37" height="113" as="geometry" />
        </mxCell>
        <mxCell id="QxWfKdQQFuDrmjM4ranz-5" value="" style="rounded=0;whiteSpace=wrap;html=1;" parent="1" vertex="1">
          <mxGeometry x="1786" y="1338" width="37" height="73" as="geometry" />
        </mxCell>
        <mxCell id="QxWfKdQQFuDrmjM4ranz-6" value="" style="rounded=0;whiteSpace=wrap;html=1;" parent="1" vertex="1">
          <mxGeometry x="1823" y="1365" width="37" height="46" as="geometry" />
        </mxCell>
        <mxCell id="QxWfKdQQFuDrmjM4ranz-7" value="" style="rounded=0;whiteSpace=wrap;html=1;" parent="1" vertex="1">
          <mxGeometry x="1860" y="1381" width="37" height="30" as="geometry" />
        </mxCell>
        <mxCell id="QxWfKdQQFuDrmjM4ranz-8" value="" style="rounded=0;whiteSpace=wrap;html=1;" parent="1" vertex="1">
          <mxGeometry x="1897" y="1244" width="37" height="167" as="geometry" />
        </mxCell>
        <mxCell id="QxWfKdQQFuDrmjM4ranz-9" value="" style="endArrow=classic;html=1;" parent="1" edge="1">
          <mxGeometry width="50" height="50" relative="1" as="geometry">
            <mxPoint x="2107" y="1410" as="sourcePoint" />
            <mxPoint x="2418" y="1410" as="targetPoint" />
          </mxGeometry>
        </mxCell>
        <mxCell id="QxWfKdQQFuDrmjM4ranz-10" value="" style="endArrow=classic;html=1;" parent="1" edge="1">
          <mxGeometry width="50" height="50" relative="1" as="geometry">
            <mxPoint x="2107" y="1409" as="sourcePoint" />
            <mxPoint x="2107" y="1202" as="targetPoint" />
          </mxGeometry>
        </mxCell>
        <mxCell id="QxWfKdQQFuDrmjM4ranz-11" value="" style="rounded=0;whiteSpace=wrap;html=1;" parent="1" vertex="1">
          <mxGeometry x="2145" y="1297" width="37" height="113" as="geometry" />
        </mxCell>
        <mxCell id="QxWfKdQQFuDrmjM4ranz-12" value="" style="rounded=0;whiteSpace=wrap;html=1;" parent="1" vertex="1">
          <mxGeometry x="2182" y="1337" width="37" height="73" as="geometry" />
        </mxCell>
        <mxCell id="QxWfKdQQFuDrmjM4ranz-13" value="" style="rounded=0;whiteSpace=wrap;html=1;" parent="1" vertex="1">
          <mxGeometry x="2219" y="1364" width="37" height="46" as="geometry" />
        </mxCell>
        <mxCell id="QxWfKdQQFuDrmjM4ranz-14" value="" style="rounded=0;whiteSpace=wrap;html=1;" parent="1" vertex="1">
          <mxGeometry x="2256" y="1380" width="37" height="30" as="geometry" />
        </mxCell>
        <mxCell id="QxWfKdQQFuDrmjM4ranz-15" value="" style="rounded=0;whiteSpace=wrap;html=1;" parent="1" vertex="1">
          <mxGeometry x="2293" y="1243" width="37" height="167" as="geometry" />
        </mxCell>
        <mxCell id="QxWfKdQQFuDrmjM4ranz-16" value="" style="rounded=0;whiteSpace=wrap;html=1;fillColor=#66FFFF;" parent="1" vertex="1">
          <mxGeometry x="2256" y="1364" width="37" height="16" as="geometry" />
        </mxCell>
        <mxCell id="QxWfKdQQFuDrmjM4ranz-17" value="" style="endArrow=classic;html=1;" parent="1" edge="1">
          <mxGeometry width="50" height="50" relative="1" as="geometry">
            <mxPoint x="1711" y="1652" as="sourcePoint" />
            <mxPoint x="2022" y="1652" as="targetPoint" />
          </mxGeometry>
        </mxCell>
        <mxCell id="QxWfKdQQFuDrmjM4ranz-18" value="" style="endArrow=classic;html=1;" parent="1" edge="1">
          <mxGeometry width="50" height="50" relative="1" as="geometry">
            <mxPoint x="1711" y="1651" as="sourcePoint" />
            <mxPoint x="1711" y="1444" as="targetPoint" />
          </mxGeometry>
        </mxCell>
        <mxCell id="QxWfKdQQFuDrmjM4ranz-19" value="" style="rounded=0;whiteSpace=wrap;html=1;" parent="1" vertex="1">
          <mxGeometry x="1749" y="1539" width="37" height="113" as="geometry" />
        </mxCell>
        <mxCell id="QxWfKdQQFuDrmjM4ranz-20" value="" style="rounded=0;whiteSpace=wrap;html=1;" parent="1" vertex="1">
          <mxGeometry x="1786" y="1579" width="37" height="73" as="geometry" />
        </mxCell>
        <mxCell id="QxWfKdQQFuDrmjM4ranz-21" value="" style="rounded=0;whiteSpace=wrap;html=1;" parent="1" vertex="1">
          <mxGeometry x="1823" y="1606" width="37" height="46" as="geometry" />
        </mxCell>
        <mxCell id="QxWfKdQQFuDrmjM4ranz-22" value="" style="rounded=0;whiteSpace=wrap;html=1;" parent="1" vertex="1">
          <mxGeometry x="1860" y="1622" width="37" height="30" as="geometry" />
        </mxCell>
        <mxCell id="QxWfKdQQFuDrmjM4ranz-23" value="" style="rounded=0;whiteSpace=wrap;html=1;" parent="1" vertex="1">
          <mxGeometry x="1897" y="1485" width="37" height="167" as="geometry" />
        </mxCell>
        <mxCell id="QxWfKdQQFuDrmjM4ranz-24" value="" style="rounded=0;whiteSpace=wrap;html=1;fillColor=#66FFFF;" parent="1" vertex="1">
          <mxGeometry x="1860" y="1606" width="37" height="16" as="geometry" />
        </mxCell>
        <mxCell id="QxWfKdQQFuDrmjM4ranz-25" value="" style="endArrow=classic;html=1;" parent="1" edge="1">
          <mxGeometry width="50" height="50" relative="1" as="geometry">
            <mxPoint x="2109" y="1651" as="sourcePoint" />
            <mxPoint x="2420" y="1651" as="targetPoint" />
          </mxGeometry>
        </mxCell>
        <mxCell id="QxWfKdQQFuDrmjM4ranz-26" value="" style="endArrow=classic;html=1;" parent="1" edge="1">
          <mxGeometry width="50" height="50" relative="1" as="geometry">
            <mxPoint x="2109" y="1650" as="sourcePoint" />
            <mxPoint x="2109" y="1443" as="targetPoint" />
          </mxGeometry>
        </mxCell>
        <mxCell id="QxWfKdQQFuDrmjM4ranz-27" value="" style="rounded=0;whiteSpace=wrap;html=1;" parent="1" vertex="1">
          <mxGeometry x="2147" y="1538" width="37" height="113" as="geometry" />
        </mxCell>
        <mxCell id="QxWfKdQQFuDrmjM4ranz-28" value="" style="rounded=0;whiteSpace=wrap;html=1;" parent="1" vertex="1">
          <mxGeometry x="2184" y="1578" width="37" height="73" as="geometry" />
        </mxCell>
        <mxCell id="QxWfKdQQFuDrmjM4ranz-29" value="" style="rounded=0;whiteSpace=wrap;html=1;" parent="1" vertex="1">
          <mxGeometry x="2221" y="1605" width="37" height="46" as="geometry" />
        </mxCell>
        <mxCell id="QxWfKdQQFuDrmjM4ranz-30" value="" style="rounded=0;whiteSpace=wrap;html=1;" parent="1" vertex="1">
          <mxGeometry x="2258" y="1621" width="37" height="30" as="geometry" />
        </mxCell>
        <mxCell id="QxWfKdQQFuDrmjM4ranz-31" value="" style="rounded=0;whiteSpace=wrap;html=1;" parent="1" vertex="1">
          <mxGeometry x="2295" y="1484" width="37" height="167" as="geometry" />
        </mxCell>
        <mxCell id="QxWfKdQQFuDrmjM4ranz-32" value="" style="rounded=0;whiteSpace=wrap;html=1;fillColor=#66FFFF;" parent="1" vertex="1">
          <mxGeometry x="2258" y="1605" width="37" height="16" as="geometry" />
        </mxCell>
        <mxCell id="QxWfKdQQFuDrmjM4ranz-33" value="" style="rounded=0;whiteSpace=wrap;html=1;fillColor=#99CCFF;" parent="1" vertex="1">
          <mxGeometry x="1823" y="1579" width="75" height="27" as="geometry" />
        </mxCell>
        <mxCell id="QxWfKdQQFuDrmjM4ranz-34" value="" style="rounded=0;whiteSpace=wrap;html=1;fillColor=#99CCFF;" parent="1" vertex="1">
          <mxGeometry x="2221" y="1578" width="75" height="27" as="geometry" />
        </mxCell>
        <mxCell id="QxWfKdQQFuDrmjM4ranz-35" value="" style="rounded=0;whiteSpace=wrap;html=1;fillColor=#0000FF;" parent="1" vertex="1">
          <mxGeometry x="2184" y="1538" width="110" height="40" as="geometry" />
        </mxCell>
        <mxCell id="Nl5bQeHUea7xx7B5sTll-2" value="6" style="ellipse;whiteSpace=wrap;html=1;aspect=fixed;comic=0;fillColor=#dae8fc;strokeColor=#6c8ebf;" vertex="1" parent="1">
          <mxGeometry x="1274" y="320" width="48" height="48" as="geometry" />
        </mxCell>
        <mxCell id="Nl5bQeHUea7xx7B5sTll-8" value="3" style="ellipse;whiteSpace=wrap;html=1;aspect=fixed;comic=0;fillColor=#dae8fc;strokeColor=#6c8ebf;" vertex="1" parent="1">
          <mxGeometry x="1334" y="508" width="48" height="48" as="geometry" />
        </mxCell>
        <mxCell id="Nl5bQeHUea7xx7B5sTll-9" value="7" style="ellipse;whiteSpace=wrap;html=1;aspect=fixed;comic=0;fillColor=#dae8fc;strokeColor=#6c8ebf;" vertex="1" parent="1">
          <mxGeometry x="1216.5" y="508" width="48" height="48" as="geometry" />
        </mxCell>
        <mxCell id="Nl5bQeHUea7xx7B5sTll-10" value="9" style="ellipse;whiteSpace=wrap;html=1;aspect=fixed;comic=0;fillColor=#dae8fc;strokeColor=#6c8ebf;" vertex="1" parent="1">
          <mxGeometry x="1390" y="401" width="48" height="48" as="geometry" />
        </mxCell>
        <mxCell id="Nl5bQeHUea7xx7B5sTll-12" value="3" style="ellipse;whiteSpace=wrap;html=1;aspect=fixed;comic=0;fillColor=#dae8fc;strokeColor=#6c8ebf;" vertex="1" parent="1">
          <mxGeometry x="1089" y="508" width="48" height="48" as="geometry" />
        </mxCell>
        <mxCell id="Nl5bQeHUea7xx7B5sTll-13" value="5" style="ellipse;whiteSpace=wrap;html=1;aspect=fixed;comic=0;fillColor=#dae8fc;strokeColor=#6c8ebf;" vertex="1" parent="1">
          <mxGeometry x="1147" y="405" width="48" height="48" as="geometry" />
        </mxCell>
        <mxCell id="Nl5bQeHUea7xx7B5sTll-17" value="" style="endArrow=classic;html=1;entryX=0.5;entryY=0;entryDx=0;entryDy=0;exitX=0.5;exitY=1;exitDx=0;exitDy=0;" edge="1" parent="1" source="Nl5bQeHUea7xx7B5sTll-13" target="Nl5bQeHUea7xx7B5sTll-12">
          <mxGeometry width="50" height="50" relative="1" as="geometry">
            <mxPoint x="1088" y="359" as="sourcePoint" />
            <mxPoint x="1166" y="449" as="targetPoint" />
          </mxGeometry>
        </mxCell>
        <mxCell id="Nl5bQeHUea7xx7B5sTll-18" value="" style="endArrow=classic;html=1;exitX=0.5;exitY=1;exitDx=0;exitDy=0;entryX=1;entryY=0;entryDx=0;entryDy=0;" edge="1" parent="1" source="Nl5bQeHUea7xx7B5sTll-2" target="Nl5bQeHUea7xx7B5sTll-13">
          <mxGeometry width="50" height="50" relative="1" as="geometry">
            <mxPoint x="1197" y="422" as="sourcePoint" />
            <mxPoint x="1247" y="372" as="targetPoint" />
          </mxGeometry>
        </mxCell>
        <mxCell id="Nl5bQeHUea7xx7B5sTll-19" value="" style="endArrow=classic;html=1;exitX=0.5;exitY=1;exitDx=0;exitDy=0;entryX=0;entryY=0;entryDx=0;entryDy=0;" edge="1" parent="1" source="Nl5bQeHUea7xx7B5sTll-13" target="Nl5bQeHUea7xx7B5sTll-9">
          <mxGeometry width="50" height="50" relative="1" as="geometry">
            <mxPoint x="1165" y="539" as="sourcePoint" />
            <mxPoint x="1215" y="489" as="targetPoint" />
          </mxGeometry>
        </mxCell>
        <mxCell id="Nl5bQeHUea7xx7B5sTll-20" value="" style="endArrow=classic;html=1;exitX=0.5;exitY=1;exitDx=0;exitDy=0;entryX=0;entryY=0;entryDx=0;entryDy=0;" edge="1" parent="1" source="Nl5bQeHUea7xx7B5sTll-2" target="Nl5bQeHUea7xx7B5sTll-10">
          <mxGeometry width="50" height="50" relative="1" as="geometry">
            <mxPoint x="1389" y="339" as="sourcePoint" />
            <mxPoint x="1439" y="289" as="targetPoint" />
          </mxGeometry>
        </mxCell>
        <mxCell id="Nl5bQeHUea7xx7B5sTll-21" value="" style="endArrow=classic;html=1;exitX=0.325;exitY=0.983;exitDx=0;exitDy=0;exitPerimeter=0;entryX=0.675;entryY=0.004;entryDx=0;entryDy=0;entryPerimeter=0;" edge="1" parent="1" source="Nl5bQeHUea7xx7B5sTll-10" target="Nl5bQeHUea7xx7B5sTll-8">
          <mxGeometry width="50" height="50" relative="1" as="geometry">
            <mxPoint x="1467" y="540" as="sourcePoint" />
            <mxPoint x="1517" y="490" as="targetPoint" />
          </mxGeometry>
        </mxCell>
      </root>
    </mxGraphModel>
  </diagram>
</mxfile>
